<svg id="visual" viewBox="0 0 900 600" width="900" height="600" xmlns="http://www.w3.org/2000/svg" xmlns:xlink="http://www.w3.org/1999/xlink" version="1.1"><rect x="0" y="0" width="900" height="600" fill="#FFFFFF"></rect><path d="M0 525L10 526.5C20 528 40 531 60 531.2C80 531.3 100 528.7 120 528.2C140 527.7 160 529.3 180 532.7C200 536 220 541 240 540.7C260 540.3 280 534.7 300 536.5C320 538.3 340 547.7 360 552.3C380 557 400 557 420 552.3C440 547.7 460 538.3 480 534C500 529.7 520 530.3 540 531.5C560 532.7 580 534.3 600 538.3C620 542.3 640 548.7 660 547C680 545.3 700 535.7 720 534.8C740 534 760 542 780 545.2C800 548.3 820 546.7 840 544.2C860 541.7 880 538.3 890 536.7L900 535L900 601L890 601C880 601 860 601 840 601C820 601 800 601 780 601C760 601 740 601 720 601C700 601 680 601 660 601C640 601 620 601 600 601C580 601 560 601 540 601C520 601 500 601 480 601C460 601 440 601 420 601C400 601 380 601 360 601C340 601 320 601 300 601C280 601 260 601 240 601C220 601 200 601 180 601C160 601 140 601 120 601C100 601 80 601 60 601C40 601 20 601 10 601L0 601Z" fill="#E0E7FF" stroke-linecap="round" stroke-linejoin="miter"></path></svg>